<?xml version="1.0" encoding="UTF-8"?>
<svg height="600" width="800" xmlns="http://www.w3.org/2000/svg" xmlns:xlink="http://www.w3.org/1999/xlink">
    <g id="Notes" font-family="'LucidaGrande', 'Lucida Grande', sans-serif" font-size="13">
        <rect fill="white" height="600.0" width="800.0" x="0.0" y="0.0" />
        <g font-size="13">
            <text x="18.0" y="176.0">Small</text>
            <text x="18.0" y="376.0">Medium</text>
            <text x="18.0" y="576.0">Large</text>
        </g>
        <g font-size="9">
            <text x="250.0" y="30.0">Ultralight</text>
            <text x="450.0" y="30.0">Regular</text>
            <text x="650.0" y="30.0">Black</text>
            <text id="template-version" fill="#505050" text-anchor="end" x="785.0" y="575.0">Template v.3.0</text>
            <a href="https://github.com/swhitty/SwiftDraw">
                <text fill="#505050" text-anchor="end" x="785.0" y="590.0">https://github.com/swhitty/SwiftDraw</text>
            </a>
        </g>
    </g>
    <g id="Guides" stroke="rgb(39, 170, 225)" stroke-width="0.5">
        <path id="Capline-S" d="M18,76 l800,0" />
        <path id="H-reference" d="M85,145.755 L87.685,145.755 L113.369,79.287 L114.052,79.287 L114.052,76 L112.148,76 L85,145.755 Z M95.693,121.536 L130.996,121.536 L130.263,119.313 L96.474,119.313 L95.693,121.536 Z M139.15,145.755 L141.787,145.755 L114.638,76 L113.466,76 L113.466,79.287 L139.15,145.755 Z" stroke="none" transform="translate(0,0)" />
        <path id="Baseline-S" d="M18,146 l800,0" />
        <path id="left-margin-Ultralight-S" d="M229.111,56 l0,110" />
        <path id="right-margin-Ultralight-S" d="M300.889,56 l0,110" />
        <path id="left-margin-Regular-S" d="M429.111,56 l0,110" />
        <path id="right-margin-Regular-S" d="M500.889,56 l0,110" />
        <path id="left-margin-Black-S" d="M629.111,56 l0,110" />
        <path id="right-margin-Black-S" d="M700.889,56 l0,110" />
        <path id="Capline-M" d="M18,276 l800,0" />
        <path id="Baseline-M" d="M18,346 l800,0" />
        <path id="Capline-L" d="M18,476 l800,0" />
        <path id="Baseline-L" d="M18,546 l800,0" />
    </g>
    <g id="Symbols">
        <g id="Ultralight-S" transform="translate(0,0)">
            <path d="M280.346,88.143 C280.215,88.111 280.092,88.05 279.986,87.965 C279.771,87.794 279.641,87.538 279.632,87.263 C279.627,87.128 279.651,86.993 279.703,86.867 C281.501,82.492 282.294,78.991 281.014,77.525 C277.623,73.637 264.025,81.369 259.689,83.988 C259.393,84.166 259.023,84.168 258.725,83.992 C258.549,83.888 258.412,83.73 258.334,83.541 C256.512,79.175 254.596,76.138 252.654,76.006 C247.506,75.654 243.358,90.738 242.143,95.654 C242.111,95.785 242.05,95.908 241.966,96.015 C241.795,96.229 241.539,96.358 241.265,96.368 C241.129,96.373 240.994,96.349 240.869,96.297 C236.493,94.499 232.991,93.706 231.527,94.986 C227.638,98.377 235.369,111.975 237.988,116.311 C238.058,116.427 238.102,116.556 238.117,116.691 C238.164,117.108 237.929,117.506 237.541,117.666 C233.176,119.488 230.139,121.404 230.006,123.346 C229.655,128.494 244.738,132.642 249.655,133.857 C249.853,133.906 250.03,134.019 250.158,134.177 C250.287,134.336 250.361,134.532 250.368,134.736 C250.373,134.871 250.349,135.006 250.297,135.131 C248.499,139.507 247.706,143.009 248.986,144.473 C252.377,148.362 265.976,140.631 270.312,138.012 C270.547,137.87 270.832,137.838 271.093,137.924 C271.353,138.01 271.563,138.205 271.667,138.459 C273.49,142.824 275.404,145.861 277.348,145.994 C282.495,146.345 286.644,131.262 287.857,126.345 C287.959,125.938 288.317,125.647 288.737,125.631 C288.872,125.626 289.007,125.651 289.133,125.703 C293.508,127.501 297.009,128.293 298.475,127.014 C302.363,123.623 294.631,110.024 292.012,105.688 C291.796,105.328 291.845,104.87 292.13,104.562 C292.222,104.463 292.334,104.385 292.459,104.333 C296.825,102.51 299.862,100.594 299.994,98.652 C300.346,93.505 285.262,89.356 280.346,88.143 Z M274.441,83.209 C275.43,84.982 270.332,96.799 266.54,105.065 C266.41,105.348 266.118,105.52 265.807,105.497 C265.497,105.473 265.234,105.258 265.148,104.959 C263.616,99.585 261.866,93.271 259.993,87.91 C259.841,87.476 260.026,86.995 260.431,86.776 C265.108,84.221 273.112,80.829 274.441,83.209 Z M252.026,84.671 C253.979,85.226 258.729,97.187 261.892,105.713 C262,106.004 261.915,106.333 261.679,106.535 C261.443,106.738 261.106,106.773 260.834,106.622 C255.947,103.91 250.248,100.679 245.133,98.213 C244.719,98.012 244.511,97.542 244.641,97.101 C246.146,91.992 249.402,83.929 252.026,84.671 Z M237.21,101.556 C238.982,100.567 250.801,105.665 259.065,109.457 C259.348,109.587 259.52,109.879 259.496,110.19 C259.473,110.5 259.258,110.763 258.959,110.849 C253.587,112.381 247.271,114.131 241.91,116.004 C241.476,116.155 240.997,115.97 240.777,115.566 C238.227,110.889 234.829,102.885 237.21,101.556 Z M238.673,123.971 C239.226,122.018 251.188,117.268 259.714,114.105 C260.006,113.997 260.334,114.082 260.537,114.318 C260.74,114.554 260.774,114.891 260.624,115.163 C257.91,120.05 254.678,125.749 252.213,130.863 C252.116,131.064 251.951,131.224 251.748,131.314 C251.544,131.405 251.315,131.419 251.101,131.356 C245.992,129.86 237.929,126.595 238.673,123.971 Z M255.558,138.787 C254.567,137.015 259.667,125.196 263.458,116.932 C263.555,116.723 263.742,116.57 263.967,116.518 C264.191,116.466 264.427,116.52 264.605,116.666 C264.723,116.762 264.809,116.892 264.851,117.038 C266.382,122.41 268.133,128.726 270.006,134.086 C270.157,134.521 269.97,135.001 269.566,135.22 C264.891,137.77 256.885,141.168 255.562,138.787 L255.558,138.787 Z M277.973,137.324 C276.018,136.771 271.268,124.809 268.105,116.283 C267.997,115.991 268.082,115.662 268.318,115.459 C268.555,115.256 268.893,115.222 269.165,115.373 C274.05,118.085 279.751,121.318 284.864,123.784 C285.279,123.984 285.487,124.455 285.356,124.896 C283.852,130.013 280.596,138.068 277.973,137.324 Z M292.788,120.439 C291.015,121.43 279.198,116.33 270.932,112.538 C270.723,112.442 270.57,112.255 270.518,112.03 C270.466,111.806 270.52,111.57 270.666,111.392 C270.762,111.274 270.892,111.188 271.038,111.146 C276.412,109.615 282.726,107.864 288.087,105.991 C288.521,105.84 289.002,106.026 289.221,106.431 C291.77,111.106 295.168,119.112 292.788,120.439 Z M291.326,98.024 C290.771,99.979 278.81,104.729 270.284,107.892 C269.992,108 269.663,107.915 269.46,107.679 C269.257,107.442 269.223,107.104 269.375,106.832 C272.087,101.947 275.318,96.246 277.784,91.133 C277.984,90.719 278.455,90.51 278.896,90.641 C284.005,92.145 292.068,95.401 291.326,98.024 Z" />
        </g>
        <g id="Regular-S" transform="translate(0,0)">
            <path d="M480.346,88.143 C480.215,88.111 480.092,88.05 479.986,87.965 C479.771,87.794 479.641,87.538 479.632,87.263 C479.627,87.128 479.651,86.993 479.703,86.867 C481.501,82.492 482.294,78.991 481.014,77.525 C477.623,73.637 464.025,81.369 459.689,83.988 C459.393,84.166 459.023,84.168 458.725,83.992 C458.549,83.888 458.412,83.73 458.334,83.541 C456.512,79.175 454.596,76.138 452.654,76.006 C447.506,75.654 443.358,90.738 442.143,95.654 C442.111,95.785 442.05,95.908 441.966,96.015 C441.795,96.229 441.539,96.358 441.265,96.368 C441.129,96.373 440.994,96.349 440.869,96.297 C436.493,94.499 432.991,93.706 431.527,94.986 C427.638,98.377 435.369,111.975 437.988,116.311 C438.058,116.427 438.102,116.556 438.117,116.691 C438.164,117.108 437.929,117.506 437.541,117.666 C433.176,119.488 430.139,121.404 430.006,123.346 C429.655,128.494 444.738,132.642 449.655,133.857 C449.853,133.906 450.03,134.019 450.158,134.177 C450.287,134.336 450.361,134.532 450.368,134.736 C450.373,134.871 450.349,135.006 450.297,135.131 C448.499,139.507 447.706,143.009 448.986,144.473 C452.377,148.362 465.976,140.631 470.312,138.012 C470.547,137.87 470.832,137.838 471.093,137.924 C471.353,138.01 471.563,138.205 471.667,138.459 C473.49,142.824 475.404,145.861 477.348,145.994 C482.495,146.345 486.644,131.262 487.857,126.345 C487.959,125.938 488.317,125.647 488.737,125.631 C488.872,125.626 489.007,125.651 489.133,125.703 C493.508,127.501 497.009,128.293 498.475,127.014 C502.363,123.623 494.631,110.024 492.012,105.688 C491.796,105.328 491.845,104.87 492.13,104.562 C492.222,104.463 492.334,104.385 492.459,104.333 C496.825,102.51 499.862,100.594 499.994,98.652 C500.346,93.505 485.262,89.356 480.346,88.143 Z M474.441,83.209 C475.43,84.982 470.332,96.799 466.54,105.065 C466.41,105.348 466.118,105.52 465.807,105.497 C465.497,105.473 465.234,105.258 465.148,104.959 C463.616,99.585 461.866,93.271 459.993,87.91 C459.841,87.476 460.026,86.995 460.431,86.776 C465.108,84.221 473.112,80.829 474.441,83.209 Z M452.026,84.671 C453.979,85.226 458.729,97.187 461.892,105.713 C462,106.004 461.915,106.333 461.679,106.535 C461.443,106.738 461.106,106.773 460.834,106.622 C455.947,103.91 450.248,100.679 445.133,98.213 C444.719,98.012 444.511,97.542 444.641,97.101 C446.146,91.992 449.402,83.929 452.026,84.671 Z M437.21,101.556 C438.982,100.567 450.801,105.665 459.065,109.457 C459.348,109.587 459.52,109.879 459.496,110.19 C459.473,110.5 459.258,110.763 458.959,110.849 C453.587,112.381 447.271,114.131 441.91,116.004 C441.476,116.155 440.997,115.97 440.777,115.566 C438.227,110.889 434.829,102.885 437.21,101.556 Z M438.673,123.971 C439.226,122.018 451.188,117.268 459.714,114.105 C460.006,113.997 460.334,114.082 460.537,114.318 C460.74,114.554 460.774,114.891 460.624,115.163 C457.91,120.05 454.678,125.749 452.213,130.863 C452.116,131.064 451.951,131.224 451.748,131.314 C451.544,131.405 451.315,131.419 451.101,131.356 C445.992,129.86 437.929,126.595 438.673,123.971 Z M455.558,138.787 C454.567,137.015 459.667,125.196 463.458,116.932 C463.555,116.723 463.742,116.57 463.967,116.518 C464.191,116.466 464.427,116.52 464.605,116.666 C464.723,116.762 464.809,116.892 464.851,117.038 C466.382,122.41 468.133,128.726 470.006,134.086 C470.157,134.521 469.97,135.001 469.566,135.22 C464.891,137.77 456.885,141.168 455.562,138.787 L455.558,138.787 Z M477.973,137.324 C476.018,136.771 471.268,124.809 468.105,116.283 C467.997,115.991 468.082,115.662 468.318,115.459 C468.555,115.256 468.893,115.222 469.165,115.373 C474.05,118.085 479.751,121.318 484.864,123.784 C485.279,123.984 485.487,124.455 485.356,124.896 C483.852,130.013 480.596,138.068 477.973,137.324 Z M492.788,120.439 C491.015,121.43 479.198,116.33 470.932,112.538 C470.723,112.442 470.57,112.255 470.518,112.03 C470.466,111.806 470.52,111.57 470.666,111.392 C470.762,111.274 470.892,111.188 471.038,111.146 C476.412,109.615 482.726,107.864 488.087,105.991 C488.521,105.84 489.002,106.026 489.221,106.431 C491.77,111.106 495.168,119.112 492.788,120.439 Z M491.326,98.024 C490.771,99.979 478.81,104.729 470.284,107.892 C469.992,108 469.663,107.915 469.46,107.679 C469.257,107.442 469.223,107.104 469.375,106.832 C472.087,101.947 475.318,96.246 477.784,91.133 C477.984,90.719 478.455,90.51 478.896,90.641 C484.005,92.145 492.068,95.401 491.326,98.024 Z" />
        </g>
        <g id="Black-S" transform="translate(0,0)">
            <path d="M680.346,88.143 C680.215,88.111 680.092,88.05 679.986,87.965 C679.771,87.794 679.641,87.538 679.632,87.263 C679.627,87.128 679.651,86.993 679.703,86.867 C681.501,82.492 682.294,78.991 681.014,77.525 C677.623,73.637 664.025,81.369 659.69,83.988 C659.393,84.166 659.023,84.168 658.725,83.992 C658.549,83.888 658.412,83.73 658.334,83.541 C656.512,79.175 654.596,76.138 652.654,76.006 C647.506,75.654 643.358,90.738 642.143,95.654 C642.111,95.785 642.05,95.908 641.966,96.015 C641.795,96.229 641.539,96.358 641.265,96.368 C641.129,96.373 640.994,96.349 640.869,96.297 C636.493,94.499 632.991,93.706 631.527,94.986 C627.638,98.377 635.369,111.975 637.988,116.311 C638.058,116.427 638.102,116.556 638.117,116.691 C638.164,117.108 637.929,117.506 637.541,117.666 C633.176,119.488 630.139,121.404 630.006,123.346 C629.655,128.494 644.737,132.642 649.655,133.857 C649.853,133.906 650.03,134.019 650.158,134.177 C650.287,134.336 650.361,134.532 650.368,134.736 C650.373,134.871 650.349,135.006 650.297,135.131 C648.499,139.507 647.706,143.009 648.986,144.473 C652.377,148.362 665.976,140.631 670.312,138.012 C670.547,137.87 670.832,137.838 671.093,137.924 C671.353,138.01 671.563,138.205 671.667,138.459 C673.49,142.824 675.404,145.861 677.348,145.994 C682.495,146.345 686.644,131.262 687.857,126.345 C687.959,125.938 688.318,125.647 688.737,125.631 C688.872,125.626 689.007,125.651 689.133,125.703 C693.508,127.501 697.009,128.293 698.475,127.014 C702.363,123.623 694.631,110.024 692.012,105.688 C691.796,105.328 691.845,104.87 692.13,104.562 C692.222,104.463 692.334,104.385 692.459,104.333 C696.825,102.51 699.862,100.594 699.994,98.652 C700.346,93.505 685.262,89.356 680.346,88.143 Z M674.441,83.209 C675.43,84.982 670.332,96.799 666.54,105.065 C666.41,105.348 666.118,105.52 665.807,105.497 C665.497,105.473 665.234,105.258 665.148,104.959 C663.616,99.585 661.866,93.271 659.993,87.91 C659.841,87.476 660.026,86.995 660.431,86.776 C665.108,84.221 673.112,80.829 674.441,83.209 Z M652.026,84.671 C653.979,85.226 658.729,97.187 661.892,105.713 C662,106.004 661.915,106.333 661.679,106.535 C661.443,106.738 661.106,106.773 660.833,106.622 C655.947,103.91 650.248,100.679 645.133,98.213 C644.719,98.012 644.511,97.542 644.641,97.101 C646.146,91.992 649.402,83.929 652.026,84.671 Z M637.21,101.556 C638.982,100.567 650.801,105.665 659.065,109.457 C659.348,109.587 659.52,109.879 659.496,110.19 C659.473,110.5 659.258,110.763 658.959,110.849 C653.587,112.381 647.271,114.131 641.91,116.004 C641.476,116.155 640.997,115.97 640.777,115.566 C638.227,110.889 634.829,102.885 637.21,101.556 Z M638.673,123.971 C639.226,122.018 651.188,117.268 659.714,114.105 C660.006,113.997 660.334,114.082 660.537,114.318 C660.74,114.554 660.774,114.891 660.624,115.163 C657.91,120.05 654.678,125.749 652.213,130.863 C652.116,131.064 651.951,131.224 651.748,131.314 C651.544,131.405 651.315,131.419 651.101,131.356 C645.992,129.86 637.929,126.595 638.673,123.971 Z M655.558,138.787 C654.567,137.015 659.667,125.196 663.458,116.932 C663.555,116.723 663.742,116.57 663.967,116.518 C664.191,116.466 664.427,116.52 664.605,116.666 C664.723,116.762 664.809,116.892 664.851,117.038 C666.382,122.41 668.133,128.726 670.006,134.086 C670.156,134.521 669.97,135.001 669.566,135.22 C664.891,137.77 656.885,141.168 655.562,138.787 L655.558,138.787 Z M677.973,137.324 C676.018,136.771 671.268,124.809 668.105,116.283 C667.997,115.991 668.082,115.662 668.318,115.459 C668.555,115.256 668.893,115.222 669.165,115.373 C674.05,118.085 679.751,121.318 684.864,123.784 C685.279,123.984 685.487,124.455 685.356,124.896 C683.852,130.013 680.596,138.068 677.973,137.324 Z M692.788,120.439 C691.015,121.43 679.198,116.33 670.932,112.538 C670.723,112.442 670.57,112.255 670.518,112.03 C670.466,111.806 670.52,111.57 670.666,111.392 C670.762,111.274 670.892,111.188 671.038,111.146 C676.412,109.615 682.726,107.864 688.087,105.991 C688.521,105.84 689.002,106.026 689.221,106.431 C691.77,111.106 695.168,119.112 692.788,120.439 Z M691.326,98.024 C690.771,99.979 678.81,104.729 670.284,107.892 C669.992,108 669.663,107.915 669.46,107.679 C669.257,107.442 669.223,107.104 669.375,106.832 C672.087,101.947 675.318,96.246 677.784,91.133 C677.984,90.719 678.455,90.51 678.896,90.641 C684.005,92.145 692.068,95.401 691.326,98.024 Z" />
        </g>
    </g>
</svg>